Coordinates
version=1
nRows=8
nColumns=63
inDegrees=yes

Units are S.I. units (second, meters, Newtons, ...)
If the header above contains a line with 'inDegrees', this indicates whether rotational values are in degrees (yes) or radians (no).

endheader
time	pelvis_tilt	pelvis_list	pelvis_rotation	pelvis_tx	pelvis_ty	pelvis_tz	hip_flexion_r	hip_adduction_r	hip_rotation_r	knee_angle_r	knee_angle_r_beta	ankle_angle_r	subtalar_angle_r	mtp_angle_r	hip_flexion_l	hip_adduction_l	hip_rotation_l	knee_angle_l	knee_angle_l_beta	ankle_angle_l	subtalar_angle_l	mtp_angle_l	L5_S1_Flex_Ext	L5_S1_Lat_Bending	L5_S1_axial_rotation	L4_L5_Flex_Ext	L4_L5_Lat_Bending	L4_L5_axial_rotation	L3_L4_Flex_Ext	L3_L4_Lat_Bending	L3_L4_axial_rotation	L2_L3_Flex_Ext	L2_L3_Lat_Bending	L2_L3_axial_rotation	L1_L2_Flex_Ext	L1_L2_Lat_Bending	L1_L2_axial_rotation	L1_T12_Flex_Ext	L1_T12_Lat_Bending	L1_T12_axial_rotation	Abs_r3	Abs_r2	Abs_r1	Abs_t1	Abs_t2	neck_flexion	neck_bending	neck_rotation	arm_flex_r	arm_add_r	arm_rot_r	elbow_flex_r	pro_sup_r	wrist_flex_r	wrist_dev_r	arm_flex_l	arm_add_l	arm_rot_l	elbow_flex_l	pro_sup_l	wrist_flex_l	wrist_dev_l
     15.76666667	     -0.32782942	     -4.07572848	     -4.94306155	     -1.61776497	      0.87308888	      0.26433644	     -1.89495023	      5.96627033	     -0.29194954	      4.18531523	      0.07304753	      4.51010192	    -16.02656566	      0.00000000	      1.76999738	     -5.92405114	     -9.69022004	     10.19762491	      0.17798213	      5.06325753	    -16.29376794	      0.00000000	     -0.00116202	      0.25607215	     -0.46234088	     -0.00215799	      0.34057596	     -0.49123718	     -0.00190909	      0.62261383	     -0.49123718	     -0.00132808	      0.62261383	     -0.40454827	     -0.00107905	      0.52218233	     -0.37565196	     -0.00066398	      0.39665576	     -0.34675566	     -0.00830021	      2.89673939	     -2.57140125	      0.00000000	      0.00000000	      0.00000000	      0.00000000	      0.00000000	     -2.51474475	      5.44860565	    -35.46451713	     37.52497846	     32.02394848	      0.00000000	      5.00000014	     -6.56112236	      8.81714843	    -46.73489505	     43.24174643	     39.14744933	      0.00000000	      5.00000014
     15.80000000	     -0.35172214	     -3.77876903	     -5.24196511	     -1.61774113	      0.87312464	      0.26530312	     -1.72485366	      5.70341239	      0.28174552	      4.46223935	      0.07788077	      4.58883166	    -16.49308448	      0.00000000	      1.97262653	     -5.71772362	     -9.97146151	     10.52831179	      0.18375371	      5.60127338	    -15.45480952	      0.00000000	     -0.00081077	      0.23865361	     -0.43373514	     -0.00150568	      0.31740930	     -0.46084358	     -0.00133201	      0.58026239	     -0.46084358	     -0.00092663	      0.58026239	     -0.37951824	     -0.00075288	      0.48666244	     -0.35240980	     -0.00046327	      0.36967444	     -0.32530135	     -0.00579123	      2.69969738	     -2.41230471	      0.00000000	      0.00000000	      0.00000000	      0.00000000	      0.00000000	     -2.42272233	      5.72775875	    -36.00727913	     37.58149761	     32.29232013	      0.00000000	      5.00000014	     -6.65741941	      8.50606623	    -46.34812463	     43.09828986	     39.30696290	      0.00000000	      5.00000014
     15.83333333	     -0.34408260	     -3.63078234	     -5.06901426	     -1.61753159	      0.87332033	      0.26526700	     -1.82578616	      5.56085697	     -0.01105766	      4.28975799	      0.07487040	      4.48490086	    -16.40894627	      0.00000000	      2.14806476	     -5.58757278	     -9.75946837	     10.67406733	      0.18629762	      6.01752363	    -14.57621090	      0.00000000	     -0.00252051	      0.23076111	     -0.48192213	     -0.00468084	      0.30691227	     -0.51204227	     -0.00414094	      0.56107256	     -0.51204227	     -0.00288069	      0.56107256	     -0.42168187	     -0.00234054	      0.47056805	     -0.39156173	     -0.00144022	      0.35744895	     -0.36144160	     -0.01800374	      2.61041580	     -2.68030632	      0.00000000	      0.00000000	      0.00000000	      0.00000000	      0.00000000	     -2.41054444	      5.74588049	    -35.97742424	     37.55794254	     32.80760737	      0.00000000	      5.00000014	     -6.72115915	      8.41438154	    -46.37112283	     43.14550210	     39.51978222	      0.00000000	      5.00000014
     15.86666667	     -0.37744857	     -3.68207815	     -5.40565753	     -1.61742627	      0.87364546	      0.26539809	     -1.79130688	      5.60186616	      0.39492372	      4.32588906	      0.07550101	      4.26566978	    -16.65594944	      0.00000000	      2.08081033	     -5.61311060	    -10.02801819	     10.44497810	      0.18229926	      6.11910983	    -14.06659984	      0.00000000	     -0.00124868	      0.23374446	     -0.42369934	     -0.00231893	      0.31088013	     -0.45018055	     -0.00205146	      0.56832628	     -0.45018055	     -0.00142712	      0.56832628	     -0.37073693	     -0.00115953	      0.47665170	     -0.34425572	     -0.00071350	      0.36207017	     -0.31777451	     -0.00891922	      2.64416409	     -2.35648864	      0.00000000	      0.00000000	      0.00000000	      0.00000000	      0.00000000	     -2.41716925	      5.60742529	    -35.67481879	     37.40578226	     32.88659023	      0.00000000	      5.00000014	     -6.72283020	      8.44586782	    -46.52764108	     43.20367262	     39.49111245	      0.00000000	      5.00000014
     15.90000000	     -0.42293769	     -4.02249930	     -5.57945762	     -1.61731659	      0.87410400	      0.26464253	     -1.78102123	      5.89792107	      0.32923318	      4.31414896	      0.07529610	      3.90541088	    -16.60164035	      0.00000000	      1.85980313	     -5.82837115	    -10.13997789	      9.85924629	      0.17207631	      5.70840304	    -14.23246424	      0.00000000	     -0.00104855	      0.25721180	     -0.37715870	     -0.00194727	      0.34209169	     -0.40073112	     -0.00172267	      0.62538477	     -0.40073112	     -0.00119839	      0.62538477	     -0.33001386	     -0.00097369	      0.52450630	     -0.30644144	     -0.00059914	      0.39842108	     -0.28286902	     -0.00748971	      2.90963132	     -2.09764352	      0.00000000	      0.00000000	      0.00000000	      0.00000000	      0.00000000	     -2.39164014	      5.29763055	    -35.51598046	     37.09652083	     32.83491229	      0.00000000	      5.00000014	     -6.69786007	      8.69672658	    -46.66725619	     43.43092790	     39.43959956	      0.00000000	      5.00000014
     15.93333333	     -0.49567499	     -4.64950605	     -5.83788547	     -1.61722612	      0.87459543	      0.26334991	     -1.79278608	      6.44361201	      0.38315026	      4.25574254	      0.07427672	      3.40282531	    -16.45358966	      0.00000000	      1.32509726	     -6.21844634	    -10.47241053	      8.69631940	      0.15177941	      4.78472474	    -14.89561963	      0.00000000	     -0.00136224	      0.30236435	     -0.30896933	     -0.00252982	      0.40214458	     -0.32827991	     -0.00223803	      0.73516868	     -0.32827991	     -0.00155691	      0.73516868	     -0.27034816	     -0.00126498	      0.61658138	     -0.25103758	     -0.00077839	      0.46836238	     -0.23172700	     -0.00973036	      3.42040599	     -1.71839472	      0.00000000	      0.00000000	      0.00000000	      0.00000000	      0.00000000	     -2.34013239	      4.77715779	    -35.12605825	     36.61707590	     32.80665558	      0.00000000	      5.00000014	     -6.64666571	      9.21607488	    -47.06993895	     43.82335814	     39.35493082	      0.00000000	      5.00000014
     15.96666667	     -0.51242921	     -5.13559246	     -6.60920606	     -1.61690093	      0.87502182	      0.26233631	     -1.96891719	      6.77017317	      1.32259306	      4.06053157	      0.07086965	      2.95697820	    -16.26516570	      0.00000000	      0.15202070	     -6.24940136	    -10.66105734	      6.64153850	      0.11591671	      3.00210896	    -16.89868942	      0.00000000	      0.00010000	      0.32042852	     -0.14003001	      0.00018572	      0.42616994	     -0.14878189	      0.00016429	      0.77908991	     -0.14878189	      0.00011429	      0.77908991	     -0.12252626	      0.00009286	      0.65341785	     -0.11377438	      0.00005714	      0.49634378	     -0.10502251	      0.00071431	      3.62475156	     -0.77880491	      0.00000000	      0.00000000	      0.00000000	      0.00000000	      0.00000000	     -2.45113428	      3.98601433	    -33.28728991	     36.03827961	     32.78861647	      0.00000000	      5.00000014	     -6.36382499	     10.06027521	    -48.90497997	     44.34915908	     39.02310228	      0.00000000	      5.00000014
     16.00000000	     -0.62419914	     -6.02840305	     -6.61899239	     -1.61682946	      0.87505040	      0.26060573	     -1.87578524	      7.58936774	      1.24982815	      4.18181087	      0.07298637	      2.34306651	    -16.26730536	      0.00000000	     -0.59347003	     -6.83097824	    -10.95929007	      5.12388756	      0.08942871	      2.06443477	    -17.30072875	      0.00000000	      0.00176898	      0.38717214	     -0.11577212	      0.00328518	      0.51493894	     -0.12300788	      0.00290626	      0.94137033	     -0.12300788	      0.00202177	      0.94137033	     -0.10130061	      0.00164268	      0.78952142	     -0.09406485	      0.00101080	      0.59972964	     -0.08682909	      0.01263567	      4.37976864	     -0.64388980	      0.00000000	      0.00000000	      0.00000000	      0.00000000	      0.00000000	     -2.39812314	      3.40142261	    -32.87232961	     35.66409339	     32.76077811	      0.00000000	      5.00000014	     -6.35577252	     10.78543166	    -49.30887340	     45.05649738	     38.94682621	      0.00000000	      5.00000014
